<?xml version="1.0" encoding="UTF-8" standalone="no"?>
<svg
   viewBox="0 0 16 16"
   width="16"
   height="16"
   version="1.1"
   id="svg1"
   sodipodi:docname="fs.svg"
   inkscape:version="1.3.1 (91b66b0783, 2023-11-16)"
   xmlns:inkscape="http://www.inkscape.org/namespaces/inkscape"
   xmlns:sodipodi="http://sodipodi.sourceforge.net/DTD/sodipodi-0.dtd"
   xmlns="http://www.w3.org/2000/svg"
   xmlns:svg="http://www.w3.org/2000/svg">
  <defs
     id="defs1" />
  <sodipodi:namedview
     id="namedview1"
     pagecolor="#ffffff"
     bordercolor="#000000"
     borderopacity="0.25"
     inkscape:showpageshadow="2"
     inkscape:pageopacity="0.0"
     inkscape:pagecheckerboard="0"
     inkscape:deskcolor="#d1d1d1"
     showgrid="false"
     inkscape:zoom="73.8125"
     inkscape:cx="8"
     inkscape:cy="8"
     inkscape:window-width="2560"
     inkscape:window-height="1377"
     inkscape:window-x="2552"
     inkscape:window-y="-8"
     inkscape:window-maximized="1"
     inkscape:current-layer="svg1" />
  <path
     d="M 0,4.5 H 14 V 4 C 14,3.4477153 13.552285,3 13,3 H 7.75 C 7.6713107,3 7.5972136,2.9629515 7.55,2.9 L 6.65,1.7 C 6.32,1.26 5.8,1 5.25,1 H 1.75 C 1.2859598,1.0002317 0.84101009,1.1847582 0.513,1.513 0.184,1.84 0,2.286 0,2.75 m 0,10.5 C 0,14.216498 0.78350169,15 1.75,15 h 11.5 C 14.216498,15 15,14.216498 15,13.25 L 15.722,7.117 C 15.792084,6.5221087 15.327005,5.99948 14.728,6 H 1.71875 C 1.078125,6.015625 0.66797158,6.46075 0.62109658,7.117 Z"
     id="path1"
     style="fill:#d1a51e;fill-opacity:1" />
</svg>
